<svg width="666" height="224" viewBox="0 0 666 224" fill="none" xmlns="http://www.w3.org/2000/svg">
<mask id="mask0_6761_33" style="mask-type:luminance" maskUnits="userSpaceOnUse" x="56" y="61" width="112" height="112">
<path d="M167.11 61.7653H56.7961V172.08H167.11V61.7653Z" fill="white"/>
</mask>
<g mask="url(#mask0_6761_33)">
<path d="M137.809 68.722C126.611 68.722 116.89 75.003 111.953 84.2277C107.017 75.003 97.2954 68.722 86.098 68.722C69.9166 68.722 56.7961 81.8425 56.7961 98.0239C56.7961 137.668 111.953 165.247 111.953 165.247C111.953 165.247 167.11 137.668 167.11 98.0239C167.11 81.8425 153.99 68.722 137.809 68.722Z" fill="#B8D42C"/>
</g>
<path d="M186.376 111.953C186.376 70.8508 153.056 37.5309 111.953 37.5309C70.8508 37.5309 37.5313 70.8508 37.5313 111.953C37.5313 153.056 70.8508 186.376 111.953 186.376V199.906C63.3782 199.906 24 160.528 24 111.953C24 63.3782 63.3782 24 111.953 24C160.528 24 199.906 63.3782 199.906 111.953C199.906 160.528 160.528 199.906 111.953 199.906V186.376C153.056 186.376 186.376 153.056 186.376 111.953Z" fill="#006C6F"/>
<path d="M128.704 84.1301C130.108 84.0616 131.417 84.8447 132.019 86.1158L142.371 107.978H171.086C173.007 107.978 174.564 109.535 174.564 111.456C174.564 113.377 173.007 114.935 171.086 114.935H140.171C138.826 114.935 137.602 114.159 137.026 112.945L129.317 96.6662L116.097 133.502C115.608 134.863 114.329 135.779 112.884 135.804C111.438 135.829 110.128 134.958 109.592 133.616L97.1066 102.308L91.0025 115.319C90.4291 116.54 89.2017 117.32 87.8531 117.32H37.9136C35.9926 117.32 34.4354 115.762 34.4352 113.841C34.4352 111.92 35.9925 110.363 37.9136 110.363H85.6419L94.2166 92.0907L94.3338 91.8601C94.9649 90.7401 96.1694 90.0523 97.4683 90.0911C98.8537 90.1318 100.083 90.9915 100.596 92.2785L112.651 122.507L125.6 86.4289L125.699 86.1864C126.23 84.9968 127.388 84.1947 128.704 84.1301Z" fill="#006C6F"/>
<path d="M249.807 102.268C246.333 102.268 243.249 101.689 240.556 100.531C237.885 99.3487 235.77 97.5767 234.211 95.2133C232.675 92.8264 231.906 89.8372 231.906 86.2454C231.906 83.2203 232.438 80.6685 233.501 78.5887C234.565 76.5089 236.03 74.8196 237.897 73.5196C239.764 72.2202 241.914 71.2391 244.348 70.5773C246.783 69.8921 249.382 69.4312 252.147 69.1951C255.242 68.9115 257.736 68.6162 259.626 68.3091C261.516 67.9779 262.887 67.5176 263.738 66.9263C264.612 66.3121 265.049 65.4496 265.049 64.3386V64.1619C265.049 62.3422 264.423 60.936 263.17 59.9437C261.918 58.9507 260.229 58.4546 258.102 58.4546C255.81 58.4546 253.966 58.9507 252.572 59.9437C251.177 60.936 250.291 62.3064 249.913 64.055L233.927 63.4884C234.4 60.1797 235.616 57.2256 237.578 54.6262C239.563 52.0033 242.281 49.9471 245.731 48.4586C249.205 46.9461 253.375 46.1899 258.243 46.1899C261.717 46.1899 264.92 46.6035 267.85 47.4306C270.78 48.2343 273.332 49.4157 275.506 50.9752C277.681 52.5112 279.358 54.4019 280.54 56.6467C281.745 58.892 282.347 61.4556 282.347 64.3386V101.346H266.042V93.76H265.617C264.648 95.6032 263.407 97.1627 261.895 98.4392C260.406 99.7151 258.645 100.672 256.613 101.31C254.604 101.948 252.336 102.268 249.807 102.268ZM255.16 90.924C257.026 90.924 258.704 90.5459 260.193 89.7902C261.705 89.0339 262.911 87.994 263.809 86.6705C264.706 85.3236 265.156 83.764 265.156 81.9914V76.816C264.66 77.0761 264.057 77.3128 263.348 77.5253C262.663 77.7379 261.906 77.9387 261.08 78.1278C260.252 78.3168 259.401 78.4824 258.527 78.6239C257.653 78.766 256.814 78.8958 256.01 79.0138C254.38 79.2739 252.985 79.6756 251.827 80.2193C250.693 80.763 249.819 81.4717 249.205 82.346C248.614 83.1968 248.319 84.2126 248.319 85.3946C248.319 87.1908 248.956 88.5612 250.233 89.5066C251.532 90.4513 253.174 90.924 255.16 90.924ZM316.365 102.374C310.623 102.374 305.696 101.192 301.584 98.8291C297.496 96.4657 294.353 93.1811 292.155 88.9746C289.957 84.7446 288.859 79.8529 288.859 74.2994C288.859 68.7225 289.957 63.8307 292.155 59.6242C294.376 55.3942 297.531 52.0979 301.62 49.7345C305.732 47.3715 310.635 46.1899 316.33 46.1899C321.363 46.1899 325.747 47.0997 329.481 48.9195C333.238 50.7391 336.169 53.3151 338.272 56.6467C340.399 59.9554 341.521 63.8425 341.64 68.3091H325.44C325.109 65.5206 324.164 63.3346 322.604 61.751C321.068 60.168 319.059 59.3764 316.578 59.3764C314.57 59.3764 312.809 59.9437 311.297 61.0775C309.784 62.1884 308.603 63.8425 307.752 66.0403C306.925 68.2146 306.511 70.9085 306.511 74.1221C306.511 77.3363 306.925 80.0537 307.752 82.275C308.603 84.4727 309.784 86.1391 311.297 87.273C312.809 88.3839 314.57 88.9394 316.578 88.9394C318.185 88.9394 319.603 88.5965 320.832 87.9112C322.084 87.226 323.112 86.2213 323.916 84.8984C324.719 83.5515 325.227 81.9209 325.44 80.0067H341.64C341.474 84.4962 340.351 88.4191 338.272 91.7748C336.216 95.1305 333.321 97.7417 329.587 99.6089C325.877 101.452 321.47 102.374 316.365 102.374ZM365.847 70.2937V101.346H348.514V28.7499H365.28V56.8951H365.883C367.112 53.5394 369.12 50.9165 371.909 49.0258C374.721 47.1352 378.159 46.1899 382.224 46.1899C386.052 46.1899 389.384 47.0407 392.22 48.7422C395.056 50.4197 397.253 52.7948 398.813 55.8669C400.397 58.939 401.176 62.5313 401.153 66.6427V101.346H383.819V70.0459C383.842 67.0208 383.086 64.6581 381.55 62.9564C380.014 61.2548 377.852 60.404 375.064 60.404C373.244 60.404 371.637 60.8062 370.243 61.6095C368.872 62.3892 367.797 63.5119 367.017 64.9769C366.261 66.4419 365.871 68.2146 365.847 70.2937ZM435.427 102.374C429.732 102.374 424.817 101.251 420.682 99.0064C416.57 96.7376 413.403 93.5117 411.182 89.3292C408.984 85.1228 407.885 80.1247 407.885 74.3352C407.885 68.7107 408.996 63.7955 411.217 59.589C413.438 55.359 416.57 52.0744 420.611 49.7345C424.651 47.3715 429.413 46.1899 434.896 46.1899C438.771 46.1899 442.316 46.7925 445.53 47.9976C448.744 49.2031 451.52 50.9869 453.86 53.3503C456.2 55.7137 458.019 58.6319 459.319 62.1056C460.619 65.5558 461.269 69.514 461.269 73.9806V78.3051H413.947V68.238H445.14C445.116 66.3949 444.679 64.7526 443.829 63.3111C442.978 61.8696 441.808 60.7469 440.319 59.9437C438.854 59.1163 437.165 58.703 435.251 58.703C433.312 58.703 431.575 59.1398 430.039 60.0141C428.503 60.8649 427.287 62.0346 426.388 63.5236C425.491 64.9886 425.018 66.655 424.971 68.5216V78.766C424.971 80.9873 425.408 82.9367 426.282 84.6148C427.156 86.2689 428.397 87.5566 430.004 88.4784C431.611 89.4003 433.525 89.8606 435.747 89.8606C437.283 89.8606 438.677 89.6481 439.929 89.223C441.182 88.7973 442.257 88.1713 443.155 87.344C444.053 86.5173 444.726 85.5009 445.175 84.2954L461.091 84.7564C460.43 88.3246 458.976 91.4325 456.731 94.0789C454.51 96.7024 451.592 98.7463 447.976 100.211C444.361 101.653 440.177 102.374 435.427 102.374ZM468.125 101.346V46.8989H485.459V101.346H468.125ZM476.809 40.5538C474.376 40.5538 472.284 39.7504 470.535 38.1434C468.787 36.5129 467.913 34.5515 467.913 32.2592C467.913 29.9906 468.787 28.0528 470.535 26.4459C472.284 24.8153 474.376 24 476.809 24C479.267 24 481.359 24.8153 483.084 26.4459C484.832 28.0528 485.707 29.9906 485.707 32.2592C485.707 34.5515 484.832 36.5129 483.084 38.1434C481.359 39.7504 479.267 40.5538 476.809 40.5538Z" fill="#006365"/>
<path d="M259.874 178.706C254.132 178.706 249.205 177.524 245.093 175.161C241.004 172.798 237.862 169.513 235.664 165.307C233.466 161.077 232.367 156.185 232.367 150.632C232.367 145.055 233.466 140.163 235.664 135.957C237.885 131.727 241.04 128.43 245.128 126.067C249.24 123.704 254.143 122.522 259.839 122.522C264.872 122.522 269.256 123.432 272.99 125.252C276.747 127.072 279.677 129.647 281.78 132.979C283.907 136.288 285.03 140.175 285.148 144.641H268.949C268.618 141.853 267.672 139.667 266.113 138.083C264.577 136.5 262.568 135.709 260.087 135.709C258.078 135.709 256.318 136.276 254.805 137.41C253.292 138.521 252.111 140.175 251.26 142.373C250.434 144.547 250.02 147.241 250.02 150.454C250.02 153.669 250.434 156.386 251.26 158.607C252.111 160.805 253.292 162.472 254.805 163.605C256.318 164.716 258.078 165.272 260.087 165.272C261.694 165.272 263.112 164.929 264.341 164.244C265.593 163.558 266.621 162.554 267.425 161.231C268.228 159.884 268.736 158.253 268.949 156.339H285.148C284.983 160.829 283.86 164.751 281.78 168.107C279.725 171.463 276.83 174.074 273.096 175.941C269.386 177.784 264.978 178.706 259.874 178.706ZM317.438 178.706C311.719 178.706 306.804 177.537 302.692 175.197C298.603 172.834 295.448 169.549 293.227 165.342C291.029 161.112 289.931 156.209 289.931 150.632C289.931 145.031 291.029 140.128 293.227 135.921C295.448 131.691 298.603 128.407 302.692 126.067C306.804 123.704 311.719 122.522 317.438 122.522C323.157 122.522 328.06 123.704 332.148 126.067C336.26 128.407 339.415 131.691 341.613 135.921C343.834 140.128 344.945 145.031 344.945 150.632C344.945 156.209 343.834 161.112 341.613 165.342C339.415 169.549 336.26 172.834 332.148 175.197C328.06 177.537 323.157 178.706 317.438 178.706ZM317.544 165.626C319.624 165.626 321.384 164.988 322.826 163.712C324.267 162.436 325.366 160.664 326.122 158.395C326.902 156.126 327.292 153.503 327.292 150.525C327.292 147.501 326.902 144.854 326.122 142.585C325.366 140.317 324.267 138.544 322.826 137.268C321.384 135.992 319.624 135.354 317.544 135.354C315.394 135.354 313.574 135.992 312.085 137.268C310.62 138.544 309.498 140.317 308.718 142.585C307.962 144.854 307.584 147.501 307.584 150.525C307.584 153.503 307.962 156.126 308.718 158.395C309.498 160.664 310.62 162.436 312.085 163.712C313.574 164.988 315.394 165.626 317.544 165.626ZM369.161 146.626V177.678H351.828V123.231H368.311V133.227H368.914C370.118 129.895 372.175 127.284 375.081 125.393C377.988 123.479 381.45 122.522 385.467 122.522C389.296 122.522 392.616 123.385 395.428 125.11C398.264 126.811 400.461 129.198 402.021 132.27C403.604 135.319 404.384 138.887 404.361 142.975V177.678H387.027V146.378C387.051 143.353 386.283 140.99 384.723 139.289C383.187 137.587 381.048 136.736 378.307 136.736C376.488 136.736 374.88 137.139 373.486 137.942C372.116 138.722 371.052 139.844 370.296 141.309C369.563 142.774 369.186 144.547 369.161 146.626ZM460.63 139.856L444.715 140.281C444.55 139.147 444.1 138.143 443.368 137.268C442.635 136.371 441.678 135.673 440.496 135.177C439.338 134.657 437.991 134.397 436.455 134.397C434.447 134.397 432.733 134.799 431.316 135.603C429.921 136.406 429.236 137.493 429.26 138.864C429.236 139.927 429.661 140.848 430.536 141.628C431.434 142.408 433.029 143.034 435.321 143.507L445.814 145.492C451.249 146.532 455.29 148.257 457.937 150.668C460.607 153.078 461.954 156.268 461.977 160.238C461.954 163.972 460.843 167.221 458.645 169.986C456.471 172.751 453.494 174.901 449.713 176.437C445.932 177.95 441.607 178.706 436.739 178.706C428.964 178.706 422.832 177.111 418.342 173.921C413.876 170.707 411.323 166.406 410.686 161.018L427.806 160.593C428.185 162.578 429.165 164.09 430.749 165.13C432.332 166.17 434.352 166.69 436.81 166.69C439.031 166.69 440.839 166.276 442.233 165.449C443.628 164.622 444.336 163.523 444.36 162.152C444.336 160.923 443.793 159.943 442.73 159.21C441.666 158.454 440 157.863 437.732 157.438L428.232 155.63C422.773 154.637 418.708 152.806 416.038 150.136C413.368 147.442 412.044 144.015 412.068 139.856C412.044 136.217 413.013 133.109 414.974 130.533C416.936 127.934 419.725 125.949 423.34 124.578C426.956 123.207 431.221 122.522 436.137 122.522C443.51 122.522 449.323 124.07 453.577 127.166C457.83 130.238 460.181 134.468 460.63 139.856ZM503.643 154.177V123.231H520.941V177.678H504.423V167.54H503.856C502.651 170.872 500.595 173.519 497.688 175.48C494.805 177.418 491.32 178.387 487.231 178.387C483.521 178.387 480.26 177.537 477.448 175.835C474.636 174.133 472.45 171.758 470.89 168.71C469.331 165.638 468.538 162.046 468.515 157.934V123.231H485.849V154.531C485.872 157.485 486.652 159.813 488.188 161.514C489.724 163.215 491.816 164.066 494.462 164.066C496.187 164.066 497.735 163.688 499.106 162.932C500.5 162.152 501.599 161.03 502.402 159.564C503.23 158.076 503.643 156.28 503.643 154.177ZM547.312 105.083V177.678H529.978V105.083H547.312ZM587.08 123.231V135.992H552.732V123.231H587.08ZM559.928 110.187H577.262V160.557C577.262 161.621 577.427 162.483 577.758 163.145C578.112 163.783 578.621 164.244 579.283 164.527C579.944 164.787 580.736 164.917 581.657 164.917C582.319 164.917 583.016 164.858 583.749 164.74C584.505 164.598 585.072 164.48 585.448 164.386L588.073 176.898C587.245 177.134 586.076 177.43 584.564 177.784C583.075 178.139 581.291 178.363 579.212 178.458C575.147 178.647 571.661 178.174 568.755 177.04C565.872 175.882 563.662 174.086 562.126 171.652C560.613 169.218 559.881 166.158 559.928 162.472V110.187ZM609.275 178.6C605.805 178.6 602.717 178.021 600.027 176.863C597.356 175.681 595.242 173.909 593.68 171.546C592.142 169.159 591.378 166.17 591.378 162.578C591.378 159.553 591.907 157.001 592.97 154.921C594.032 152.841 595.5 151.152 597.367 149.852C599.235 148.553 601.384 147.571 603.82 146.91C606.251 146.224 608.852 145.764 611.618 145.527C614.712 145.244 617.208 144.949 619.099 144.641C620.989 144.31 622.358 143.85 623.209 143.259C624.084 142.644 624.518 141.782 624.518 140.671V140.494C624.518 138.675 623.896 137.268 622.639 136.276C621.389 135.283 619.698 134.787 617.572 134.787C615.282 134.787 613.438 135.283 612.041 136.276C610.649 137.268 609.763 138.639 609.381 140.387L593.398 139.821C593.868 136.512 595.089 133.558 597.05 130.959C599.035 128.336 601.748 126.279 605.2 124.791C608.676 123.278 612.845 122.522 617.713 122.522C621.189 122.522 624.389 122.936 627.319 123.763C630.249 124.567 632.803 125.748 634.976 127.308C637.148 128.844 638.828 130.734 640.008 132.979C641.217 135.224 641.816 137.788 641.816 140.671V177.678H625.511V170.092H625.088C624.119 171.936 622.874 173.495 621.365 174.772C619.874 176.047 618.118 177.005 616.081 177.643C614.073 178.281 611.806 178.6 609.275 178.6ZM614.63 167.256C616.497 167.256 618.177 166.878 619.662 166.123C621.177 165.366 622.381 164.326 623.279 163.003C624.178 161.656 624.624 160.096 624.624 158.324V153.148C624.131 153.409 623.526 153.645 622.815 153.858C622.134 154.07 621.377 154.271 620.549 154.46C619.721 154.649 618.87 154.815 617.995 154.956C617.12 155.098 616.286 155.228 615.482 155.346C613.849 155.606 612.458 156.008 611.295 156.552C610.162 157.095 609.287 157.804 608.676 158.678C608.083 159.529 607.79 160.545 607.79 161.727C607.79 163.523 608.424 164.894 609.704 165.839C611.002 166.784 612.646 167.256 614.63 167.256Z" fill="#006365"/>
</svg>
