<svg width="229" height="229" viewBox="0 0 229 229" fill="none" xmlns="http://www.w3.org/2000/svg">
<mask id="mask0_6761_46" style="mask-type:luminance" maskUnits="userSpaceOnUse" x="59" y="64" width="112" height="112">
<path d="M170.11 64.7653H59.7961V175.08H170.11V64.7653Z" fill="white"/>
</mask>
<g mask="url(#mask0_6761_46)">
<path d="M140.808 71.722C129.611 71.722 119.889 78.003 114.953 87.2277C110.017 78.003 100.295 71.722 89.0979 71.722C72.9165 71.722 59.796 84.8425 59.796 101.024C59.796 140.668 114.953 168.247 114.953 168.247C114.953 168.247 170.11 140.668 170.11 101.024C170.11 84.8425 156.99 71.722 140.808 71.722Z" fill="#B8D42C"/>
</g>
<path d="M189.376 114.953C189.376 73.8508 156.056 40.5309 114.953 40.5309C73.8507 40.5309 40.5312 73.8508 40.5312 114.953C40.5312 156.056 73.8507 189.376 114.953 189.376V202.906C66.3781 202.906 26.9999 163.528 26.9999 114.953C26.9999 66.3782 66.3781 27 114.953 27C163.528 27 202.906 66.3782 202.906 114.953C202.906 163.528 163.528 202.906 114.953 202.906V189.376C156.056 189.376 189.376 156.056 189.376 114.953Z" fill="#006C6F"/>
<path d="M131.704 87.1301C133.108 87.0616 134.417 87.8447 135.019 89.1158L145.371 110.978H174.086C176.007 110.978 177.564 112.535 177.564 114.456C177.564 116.377 176.007 117.935 174.086 117.935H143.171C141.826 117.935 140.602 117.159 140.026 115.945L132.317 99.6662L119.096 136.502C118.608 137.863 117.328 138.779 115.883 138.804C114.437 138.829 113.128 137.958 112.592 136.616L100.107 105.308L94.0025 118.319C93.429 119.54 92.2017 120.32 90.8531 120.32H40.9135C38.9925 120.32 37.4353 118.762 37.4351 116.841C37.4351 114.92 38.9924 113.363 40.9135 113.363H88.6418L97.2165 95.0907L97.3338 94.8601C97.9648 93.7401 99.1694 93.0523 100.468 93.0911C101.854 93.1318 103.083 93.9915 103.596 95.2785L115.651 125.507L128.6 89.4289L128.699 89.1864C129.229 87.9968 130.388 87.1947 131.704 87.1301Z" fill="#006C6F"/>
</svg>
